<?xml version="1.0" encoding="utf-8"?>
<!-- Generator: Adobe Illustrator 22.0.0, SVG Export Plug-In . SVG Version: 6.00 Build 0)  -->
<svg version="1.1" id="Layer_1" xmlns="http://www.w3.org/2000/svg" xmlns:xlink="http://www.w3.org/1999/xlink" x="0px" y="0px"
	 viewBox="0 0 14.2 14.2" style="enable-background:new 0 0 14.2 14.2;" xml:space="preserve">
<g>
	<path d="M1.8,3.3L1.8,3.3c0.8,0,1.5-0.7,1.5-1.5v0c0-0.8-0.7-1.5-1.5-1.5h0C1,0.3,0.3,1,0.3,1.8v0C0.3,2.6,1,3.3,1.8,3.3z"/>
	<path d="M7.1,3.3L7.1,3.3c0.8,0,1.5-0.7,1.5-1.5v0c0-0.8-0.7-1.5-1.5-1.5h0C6.3,0.3,5.6,1,5.6,1.8v0C5.6,2.6,6.3,3.3,7.1,3.3z"/>
	<path d="M10.9,1.8L10.9,1.8c0,0.8,0.7,1.5,1.5,1.5h0c0.8,0,1.5-0.7,1.5-1.5v0c0-0.8-0.7-1.5-1.5-1.5h0C11.6,0.3,10.9,1,10.9,1.8z"
		/>
	<path d="M1.8,8.6L1.8,8.6c0.8,0,1.5-0.7,1.5-1.5v0c0-0.8-0.7-1.5-1.5-1.5h0C1,5.6,0.3,6.3,0.3,7.1v0C0.3,7.9,1,8.6,1.8,8.6z"/>
	<path d="M7.1,8.6L7.1,8.6c0.8,0,1.5-0.7,1.5-1.5v0c0-0.8-0.7-1.5-1.5-1.5h0c-0.8,0-1.5,0.7-1.5,1.5v0C5.6,7.9,6.3,8.6,7.1,8.6z"/>
	<path d="M12.4,8.6L12.4,8.6c0.8,0,1.5-0.7,1.5-1.5v0c0-0.8-0.7-1.5-1.5-1.5h0c-0.8,0-1.5,0.7-1.5,1.5v0C10.9,7.9,11.6,8.6,12.4,8.6
		z"/>
	<path d="M1.8,13.9L1.8,13.9c0.8,0,1.5-0.7,1.5-1.5v0c0-0.8-0.7-1.5-1.5-1.5h0c-0.8,0-1.5,0.7-1.5,1.5v0C0.3,13.2,1,13.9,1.8,13.9z"
		/>
	<path d="M7.1,13.9L7.1,13.9c0.8,0,1.5-0.7,1.5-1.5v0c0-0.8-0.7-1.5-1.5-1.5h0c-0.8,0-1.5,0.7-1.5,1.5v0C5.6,13.2,6.3,13.9,7.1,13.9
		z"/>
	<path d="M12.4,13.9L12.4,13.9c0.8,0,1.5-0.7,1.5-1.5v0c0-0.8-0.7-1.5-1.5-1.5h0c-0.8,0-1.5,0.7-1.5,1.5v0
		C10.9,13.2,11.6,13.9,12.4,13.9z"/>
</g>
</svg>
